<svg xmlns="http://www.w3.org/2000/svg" xmlns:xlink="http://www.w3.org/1999/xlink" x="0" y="0" width="661.8333129882812" height="296.8333435058594" style="
        width:661.8333129882812px;
        height:296.8333435058594px;
        background: transparent;
        fill: none;
">
        
        
        <svg xmlns="http://www.w3.org/2000/svg" class="role-diagram-draw-area"><g class="shapes-region" style="stroke: black; fill: none;"><g class="grouped-shape"><g class="composite-shape"><path class="real" d=" M385,97.42 L427.75,34.44 L446.98,47.49 L404.23,110.48 Z" style="stroke-width: 1px; stroke: rgb(0, 0, 0); stroke-opacity: 1; fill: rgb(255, 182, 182); fill-opacity: 1;"/></g><g class="composite-shape"><path class="real" d=" M236.23,188.12 C236.23,132.35 281.44,87.14 337.2,87.14 C392.97,87.14 438.18,132.35 438.18,188.12 C438.18,243.89 392.97,289.1 337.2,289.1 C281.44,289.1 236.23,243.89 236.23,188.12 Z" style="stroke-width: 1px; stroke: rgb(0, 0, 0); fill: rgb(224, 255, 233); fill-opacity: 1;"/></g><g class="composite-shape"><path class="real" d=" M115.75,161.09 L234.68,161.09 L234.68,212.06 L115.75,212.06 Z" style="stroke-width: 1px; stroke: rgb(0, 0, 0); fill: rgb(185, 234, 241); fill-opacity: 1;"/></g><g class="arrow-line"><path class="connection real" stroke-dasharray="" d="  M394.55,103.94 C371.49,137.75 322.44,190.68 237.51,187.4" style="stroke: rgb(0, 0, 0); stroke-width: 1px; fill: none; fill-opacity: 1;"/><g stroke="#000" transform="matrix(0.9999743970151198,-0.007155788862699763,0.007155788862699763,0.9999743970151198,236.22693834804937,187.34913592007592)" style="stroke: rgb(0, 0, 0); stroke-width: 1px;"><path d=" M13.12,-3.95 Q5.95,-0.54 0,0 Q5.95,0.54 13.12,3.95"/></g></g><g class="arrow-line"><path class="connection real" stroke-dasharray="6 6" d="  M237.77,2 L236.23,188.12" style="stroke: rgb(0, 0, 0); stroke-width: 1px; fill: none; fill-opacity: 1;"/></g><g class="arrow-line"><path class="connection real" stroke-dasharray="6 6" d="  M237.77,2 L394.55,103.94" style="stroke: rgb(0, 0, 0); stroke-width: 1px; fill: none; fill-opacity: 1;"/></g><g class="arrow-line"><path class="connection real" stroke-dasharray="" d="  M235.45,171.9 C301.87,164.18 332.76,150.28 394.55,103.94" style="stroke: rgb(255, 0, 0); stroke-opacity: 1; stroke-width: 1px; fill: none; fill-opacity: 1;"/></g><g class="arrow-line"><path class="connection real" stroke-dasharray="" d="  M235.45,202.79 C331.99,209.75 384.51,139.47 394.55,103.94" style="stroke: rgb(255, 0, 0); stroke-opacity: 1; stroke-width: 1px; fill: none; fill-opacity: 1;"/></g><g class="arrow-line"><path class="connection real" stroke-dasharray="" d="  M237.77,2 L331.22,164.95" style="stroke: rgb(0, 0, 0); stroke-width: 1px; fill: none; fill-opacity: 1;"/></g><g class="arrow-line"><path class="connection real" stroke-dasharray="" d="  M337.2,188.12 L434.26,197.2" style="stroke: rgb(0, 0, 0); stroke-width: 1px; fill: none; fill-opacity: 1;"/><g stroke="#000" transform="matrix(-0.9956437105068296,-0.09323948588550006,0.09323948588550006,-0.9956437105068296,436.24954752846446,197.3888807824134)" style="stroke: rgb(0, 0, 0); stroke-width: 1px;"><path d=" M10.93,-3.29 Q4.96,-0.45 0,0 Q4.96,0.45 10.93,3.29"/></g></g></g><g/></g><g/><g/><g/></svg>
        <svg xmlns="http://www.w3.org/2000/svg" xmlns:xlink="http://www.w3.org/1999/xlink" width="660" height="295" style="width:660px;height:295px;font-family:Asana-Math, Asana;background:transparent;"><g><g><g><g><g><g><g transform="matrix(1,0,0,1,292.61666107177734,230.00000762939453)"><path transform="matrix(0.017,0,0,-0.017,0,0)" d="M652 271C652 445 509 587 335 587C160 587 18 445 18 271C18 96 160 -46 335 -46C509 -46 652 96 652 271ZM507 477L335 304L162 477C208 516 269 540 335 540C400 540 460 516 507 477ZM604 271C604 205 580 144 541 98L368 271L541 443C580 397 604 336 604 271ZM301 271L128 98C89 144 65 205 65 271C65 336 89 397 128 443ZM507 64C460 25 400 1 335 1C269 1 208 25 162 64L335 237Z" stroke="rgb(0,0,0)" stroke-opacity="1" stroke-width="8" fill="rgb(0,0,0)" fill-opacity="1"></path></g></g></g></g></g><g><g transform="matrix(1,0,0,1,307.36666107177734,230.75000762939453)"><path transform="matrix(0.015,0,0,-0.015,0,0)" d="M36 0L428 0C561 0 651 89 651 183C651 270 569 345 458 357C555 376 624 440 624 514C624 601 532 683 402 683L36 683L36 652L60 652C137 652 139 641 139 605L139 78C139 42 137 31 60 31L36 31ZM222 71L222 344L410 344C509 344 551 251 551 184C551 113 499 31 396 31L271 31C224 31 222 38 222 71ZM222 366L222 612C222 645 224 652 271 652L395 652C492 652 527 567 527 514C527 450 478 366 367 366Z" stroke="rgb(0,0,0)" stroke-opacity="1" stroke-width="8" fill="rgb(0,0,0)" fill-opacity="1"></path></g></g></g></g><g transform="matrix(0.5620833778521298,-0.8270805742745623,0.8270805742745623,0.5620833778521298,120.1996421291766,372.7842819613421)"><g><g><g><g><g><g transform="matrix(1,0,0,1,394.15831756591797,77.17666717529298)"><path transform="matrix(0.01071,0,0,-0.01071,0,0)" d="M459 205C459 301 389 358 298 360L298 369C391 400 475 479 476 581C477 644 445 680 381 680C154 680 114 463 89 289C62 101 36 -87 -8 -273L-8 -283C18 -274 43 -265 70 -259C76 -162 90 -66 104 29C239 -84 459 37 459 205ZM216 12C159 12 123 45 124 103C126 205 190 570 278 629C337 668 411 631 406 558C398 447 310 371 204 371C201 338 204 378 200 329C294 362 383 309 378 208C374 115 322 12 216 12Z" stroke="rgb(0,0,0)" stroke-opacity="1" stroke-width="8" fill="rgb(0,0,0)" fill-opacity="1"></path></g></g></g></g></g><g><g transform="matrix(1,0,0,1,399.6416549682617,77.74999542236328)"><path transform="matrix(0.00945,0,0,-0.00945,0,0)" d="M389 2C389 -15 389 -22 400 -22C407 -22 408 -20 415 -9C415 -8 418 -5 451 48C482 14 546 -22 635 -22C752 -22 832 76 832 186C832 286 766 368 682 388L554 419C492 434 453 488 453 546C453 616 507 677 585 677C752 677 774 513 780 468C781 462 781 456 792 456C805 456 805 461 805 480L805 681C805 698 805 705 794 705C787 705 786 704 779 692L744 635C714 664 673 705 584 705C473 705 389 617 389 511C389 428 442 355 520 328C531 324 582 312 652 295C679 288 709 281 737 244C758 218 768 185 768 152C768 81 718 9 634 9C605 9 529 14 476 63C418 117 415 181 414 217C413 227 405 227 402 227C389 227 389 220 389 202ZM916 214C916 85 1020 -11 1137 -11C1258 -11 1359 87 1359 214C1359 342 1259 448 1138 448C1013 448 916 339 916 214ZM999 222C999 261 999 315 1023 359C1050 405 1097 426 1137 426C1181 426 1224 404 1250 361C1276 318 1276 260 1276 222C1276 186 1276 132 1254 88C1232 43 1188 14 1138 14C1095 14 1051 35 1024 81C999 125 999 186 999 222ZM1420 400C1498 400 1498 397 1498 308L1498 158C1498 80 1498 -11 1650 -11C1706 -11 1750 17 1779 79L1779 -11L1923 0L1923 31C1853 31 1845 38 1845 87L1845 442L1698 431L1698 400C1768 400 1776 393 1776 344L1776 166C1776 79 1728 11 1655 11C1571 11 1567 58 1567 110L1567 442L1420 431ZM1971 0C2010 1 2057 3 2085 3C2125 3 2172 3 2212 0L2212 31L2191 31C2117 31 2115 42 2115 78L2115 232C2115 331 2157 420 2233 420C2240 420 2242 420 2244 419C2241 418 2221 406 2221 380C2221 352 2242 337 2264 337C2282 337 2307 349 2307 381C2307 413 2276 442 2233 442C2160 442 2124 375 2110 332L2110 442L1971 431L1971 400C2041 400 2049 393 2049 344L2049 76C2049 31 2038 31 1971 31ZM2368 216C2368 88 2467 -11 2583 -11C2717 -11 2749 109 2749 119C2749 129 2739 129 2736 129C2727 129 2725 125 2723 119C2694 26 2629 14 2592 14C2539 14 2451 57 2451 218C2451 381 2533 423 2586 423C2595 423 2658 422 2693 386C2652 383 2646 353 2646 340C2646 314 2664 294 2692 294C2718 294 2738 311 2738 341C2738 409 2662 448 2585 448C2460 448 2368 340 2368 216ZM2806 220C2806 86 2911 -11 3026 -11C3148 -11 3193 100 3193 119C3193 129 3185 131 3180 131C3171 131 3169 125 3167 117C3132 14 3042 14 3032 14C2982 14 2942 44 2919 81C2889 129 2889 195 2889 231L3168 231C3190 231 3193 231 3193 252C3193 351 3139 448 3014 448C2898 448 2806 345 2806 220ZM2890 252C2896 401 2980 426 3014 426C3117 426 3127 291 3127 252Z" stroke="rgb(0,0,0)" stroke-opacity="1" stroke-width="8" fill="rgb(0,0,0)" fill-opacity="1"></path></g></g></g></g><g><g><g><g transform="matrix(1,0,0,1,149.39998626708984,189.58332061767578)"><path transform="matrix(0.0105,0,0,-0.0105,0,0)" d="M56 342C56 137 216 -22 406 -22C479 -22 559 4 593 63C606 41 646 1 657 1C666 1 666 9 666 24L666 198C666 237 670 242 735 242L735 273C698 272 643 270 613 270C573 270 488 270 452 273L452 242L484 242C574 242 577 231 577 194L577 130C577 18 450 9 422 9C357 9 159 44 159 342C159 641 356 674 416 674C523 674 614 584 634 437C636 423 636 420 650 420C666 420 666 423 666 444L666 681C666 698 666 705 655 705C651 705 647 705 639 693L589 619C557 651 503 705 404 705C218 705 56 547 56 342ZM821 0C856 1 905 3 938 3C971 3 1020 1 1055 0L1055 31C952 31 952 78 952 105L952 644L953 644L1194 22C1199 9 1204 0 1214 0C1225 0 1228 8 1232 19L1478 652L1479 652L1479 78C1479 42 1477 31 1400 31L1376 31L1376 0C1413 3 1481 3 1520 3C1559 3 1626 3 1663 0L1663 31L1639 31C1562 31 1560 42 1560 78L1560 605C1560 641 1562 652 1639 652L1663 652L1663 683L1494 683C1468 683 1468 682 1461 664L1242 101L1025 661C1016 683 1013 683 990 683L821 683L821 652L845 652C922 652 924 641 924 605L924 105C924 78 924 31 821 31ZM2089 342C2089 135 2251 -22 2437 -22C2600 -22 2698 117 2698 233C2698 243 2698 250 2685 250C2674 250 2674 244 2673 234C2665 91 2558 9 2449 9C2388 9 2192 43 2192 341C2192 640 2387 674 2448 674C2557 674 2646 583 2666 437C2668 423 2668 420 2682 420C2698 420 2698 423 2698 444L2698 681C2698 698 2698 705 2687 705C2683 705 2679 705 2671 693L2621 619C2584 655 2533 705 2437 705C2250 705 2089 546 2089 342ZM2783 214C2783 85 2887 -11 3004 -11C3125 -11 3226 87 3226 214C3226 342 3126 448 3005 448C2880 448 2783 339 2783 214ZM2866 222C2866 261 2866 315 2890 359C2917 405 2964 426 3004 426C3048 426 3091 404 3117 361C3143 318 3143 260 3143 222C3143 186 3143 132 3121 88C3099 43 3055 14 3005 14C2962 14 2918 35 2891 81C2866 125 2866 186 2866 222ZM3287 400C3365 400 3365 397 3365 308L3365 158C3365 80 3365 -11 3517 -11C3573 -11 3617 17 3646 79L3646 -11L3790 0L3790 31C3720 31 3712 38 3712 87L3712 442L3565 431L3565 400C3635 400 3643 393 3643 344L3643 166C3643 79 3595 11 3522 11C3438 11 3434 58 3434 110L3434 442L3287 431ZM3842 0C3877 1 3928 3 3955 3C3981 3 4033 1 4067 0L4067 31C4000 31 3989 31 3989 76L3989 260C3989 364 4060 420 4124 420C4187 420 4198 366 4198 309L4198 76C4198 31 4187 31 4120 31L4120 0C4155 1 4206 3 4233 3C4259 3 4311 1 4345 0L4345 31C4293 31 4268 31 4267 61L4267 252C4267 338 4267 369 4236 405C4222 422 4189 442 4131 442C4058 442 4011 399 3983 337L3983 442L3842 431L3842 400C3912 400 3920 393 3920 344L3920 76C3920 31 3909 31 3842 31ZM4356 400L4441 400L4441 124C4441 1 4534 -11 4570 -11C4641 -11 4669 60 4669 124L4669 181L4644 181L4644 126C4644 52 4614 14 4577 14C4510 14 4510 105 4510 122L4510 400L4653 400L4653 431L4510 431L4510 615L4485 615C4484 533 4454 426 4356 422ZM4753 220C4753 86 4858 -11 4973 -11C5095 -11 5140 100 5140 119C5140 129 5132 131 5127 131C5118 131 5116 125 5114 117C5079 14 4989 14 4979 14C4929 14 4889 44 4866 81C4836 129 4836 195 4836 231L5115 231C5137 231 5140 231 5140 252C5140 351 5086 448 4961 448C4845 448 4753 345 4753 220ZM4837 252C4843 401 4927 426 4961 426C5064 426 5074 291 5074 252ZM5197 0C5236 1 5283 3 5311 3C5351 3 5398 3 5438 0L5438 31L5417 31C5343 31 5341 42 5341 78L5341 232C5341 331 5383 420 5459 420C5466 420 5468 420 5470 419C5467 418 5447 406 5447 380C5447 352 5468 337 5490 337C5508 337 5533 349 5533 381C5533 413 5502 442 5459 442C5386 442 5350 375 5336 332L5336 442L5197 431L5197 400C5267 400 5275 393 5275 344L5275 76C5275 31 5264 31 5197 31Z" stroke="rgb(0,0,0)" stroke-opacity="1" stroke-width="8" fill="rgb(0,0,0)" fill-opacity="1"></path></g></g></g></g><g transform="matrix(0.997198204593572,0.07480468404690047,-0.07480468404690047,0.997198204593572,14.304599102525117,-28.582842746354004)"><g><g><g transform="matrix(1,0,0,1,383.74999237060547,181.45832061767578)"><path transform="matrix(0.0135,0,0,-0.0135,0,0)" d="M35 0C71 3 142 3 181 3C220 3 291 3 327 0L327 31L303 31C226 31 224 42 224 78L224 331L339 331C355 331 397 331 432 297C470 261 470 230 470 163C470 98 470 58 511 20C552 -16 607 -22 637 -22C715 -22 732 60 732 88C732 94 732 105 719 105C708 105 708 96 707 89C701 18 666 0 641 0C592 0 584 51 570 144L557 224C539 288 490 321 435 340C532 364 610 425 610 503C610 599 496 683 349 683L35 683L35 652L59 652C136 652 138 641 138 605L138 78C138 42 136 31 59 31L35 31ZM224 353L224 612C224 635 224 647 246 650C256 652 285 652 305 652C395 652 507 648 507 503C507 434 483 353 335 353Z" stroke="rgb(0,0,0)" stroke-opacity="1" stroke-width="8" fill="rgb(0,0,0)" fill-opacity="1"></path></g></g></g></g><g transform="matrix(0.8796485728666167,-0.47562420907027486,0.47562420907027486,0.8796485728666167,0.67577458316606,146.2373007991903)"><g><g><g transform="matrix(1,0,0,1,284.9249801635742,77.23332977294922)"><path transform="matrix(0.0105,0,0,-0.0105,0,0)" d="M28 0C67 1 114 3 142 3C182 3 229 3 269 0L269 31L248 31C174 31 172 42 172 78L172 232C172 331 214 420 290 420C297 420 299 420 301 419C298 418 278 406 278 380C278 352 299 337 321 337C339 337 364 349 364 381C364 413 333 442 290 442C217 442 181 375 167 332L167 442L28 431L28 400C98 400 106 393 106 344L106 76C106 31 95 31 28 31Z" stroke="rgb(0,0,0)" stroke-opacity="1" stroke-width="8" fill="rgb(0,0,0)" fill-opacity="1"></path></g></g></g></g></svg>
</svg>
